<svg width="174" height="38" viewBox="0 0 174 38" fill="none" xmlns="http://www.w3.org/2000/svg">
<path d="M87.249 31.6075V19.4248C87.249 18.5297 87.0944 17.7566 86.7852 17.1055C86.4759 16.4545 86.0039 15.9499 85.3691 15.5918C84.7344 15.2338 83.9287 15.0547 82.9521 15.0547C82.0895 15.0547 81.3327 15.2012 80.6816 15.4942C80.0469 15.7872 79.5586 16.2022 79.2168 16.7393C78.875 17.2601 78.7041 17.8623 78.7041 18.5459H72.2344C72.2344 17.4554 72.4948 16.4219 73.0156 15.4454C73.5365 14.4525 74.277 13.5736 75.2373 12.8086C76.2139 12.0274 77.3776 11.417 78.7285 10.9776C80.0957 10.5381 81.6257 10.3184 83.3184 10.3184C85.3203 10.3184 87.1025 10.6602 88.665 11.3438C90.2438 12.0111 91.4808 13.0202 92.376 14.3711C93.2874 15.722 93.7432 17.4229 93.7432 19.4737V30.9971C93.7432 32.3155 93.8245 33.4467 93.9873 34.3907C94.1663 35.3184 94.4268 36.1241 94.7686 36.8077V37.2227H88.2012C87.8919 36.5554 87.6559 35.709 87.4932 34.6836C87.3304 33.642 87.249 32.6166 87.249 31.6075ZM88.1523 21.1338L88.2012 24.9668H84.124C83.1149 24.9668 82.2279 25.0726 81.4629 25.2842C80.6979 25.4795 80.0713 25.7725 79.583 26.1631C79.0947 26.5375 78.7285 26.9932 78.4844 27.5303C78.2402 28.0512 78.1182 28.6452 78.1182 29.3125C78.1182 29.9636 78.2646 30.5495 78.5576 31.0704C78.8669 31.5912 79.3063 32.0062 79.876 32.3155C80.4619 32.6084 81.1455 32.7549 81.9268 32.7549C83.0661 32.7549 84.0589 32.5271 84.9053 32.0713C85.7516 31.5993 86.4108 31.0297 86.8828 30.3623C87.3548 29.695 87.6071 29.0603 87.6396 28.4581L89.4951 31.2413C89.2673 31.9086 88.9255 32.6166 88.4697 33.3653C88.014 34.114 87.4281 34.8138 86.7119 35.4649C85.9958 36.1159 85.1331 36.653 84.124 37.0762C83.1149 37.4994 81.943 37.711 80.6084 37.711C78.8994 37.711 77.3695 37.3692 76.0186 36.6856C74.6676 36.002 73.6016 35.0661 72.8203 33.878C72.0391 32.6898 71.6484 31.3389 71.6484 29.8252C71.6484 28.4255 71.9089 27.1885 72.4297 26.1143C72.9505 25.0401 73.7236 24.1368 74.749 23.4043C75.7744 22.6556 77.0439 22.0941 78.5576 21.7198C80.0876 21.3291 81.8372 21.1338 83.8066 21.1338H88.1523ZM104.877 16.4463V37.2227H98.4316V10.8067H104.486L104.877 16.4463ZM103.852 23.0625H101.947C101.964 21.142 102.224 19.4004 102.729 17.8379C103.233 16.2754 103.941 14.9327 104.853 13.8096C105.78 12.6866 106.879 11.8239 108.148 11.2217C109.418 10.6195 110.834 10.3184 112.396 10.3184C113.666 10.3184 114.813 10.4974 115.839 10.8555C116.864 11.2136 117.743 11.7832 118.476 12.5645C119.224 13.3457 119.794 14.3711 120.185 15.6407C120.591 16.8939 120.795 18.4401 120.795 20.2793V37.2227H114.301V20.2305C114.301 19.0261 114.122 18.0739 113.764 17.3741C113.422 16.6742 112.917 16.1778 112.25 15.8848C111.599 15.5918 110.793 15.4454 109.833 15.4454C108.84 15.4454 107.969 15.6488 107.221 16.0557C106.488 16.4463 105.87 16.9916 105.365 17.6915C104.877 18.3913 104.503 19.197 104.242 20.1084C103.982 21.0199 103.852 22.0046 103.852 23.0625ZM137.349 37.711C135.347 37.711 133.548 37.3855 131.953 36.7344C130.358 36.0834 128.999 35.1801 127.876 34.0245C126.769 32.8526 125.915 31.4935 125.312 29.9473C124.727 28.3848 124.434 26.7084 124.434 24.918V23.9415C124.434 21.9069 124.727 20.0596 125.312 18.3995C125.898 16.723 126.729 15.2826 127.803 14.0782C128.877 12.8737 130.163 11.946 131.66 11.295C133.158 10.6439 134.81 10.3184 136.616 10.3184C138.488 10.3184 140.14 10.6358 141.572 11.2706C143.005 11.889 144.201 12.7679 145.161 13.9073C146.121 15.0466 146.846 16.4138 147.334 18.0088C147.822 19.5876 148.066 21.3373 148.066 23.2579V25.9678H127.363V21.5245H141.719V21.0362C141.686 20.0108 141.491 19.0749 141.133 18.2286C140.775 17.3659 140.221 16.6823 139.473 16.1778C138.724 15.6569 137.756 15.3965 136.567 15.3965C135.607 15.3965 134.769 15.6081 134.053 16.0313C133.353 16.4382 132.767 17.0241 132.295 17.7891C131.839 18.5378 131.497 19.433 131.27 20.4747C131.042 21.5163 130.928 22.6719 130.928 23.9415V24.918C130.928 26.0248 131.074 27.0502 131.367 27.9942C131.676 28.9382 132.124 29.7601 132.71 30.46C133.312 31.1436 134.028 31.6807 134.858 32.0713C135.705 32.4457 136.665 32.6329 137.739 32.6329C139.09 32.6329 140.311 32.3724 141.401 31.8516C142.508 31.3145 143.468 30.5251 144.282 29.4834L147.529 32.8526C146.976 33.6664 146.227 34.4476 145.283 35.1963C144.355 35.945 143.232 36.5554 141.914 37.0274C140.596 37.4831 139.074 37.711 137.349 37.711ZM172.091 32.1446V37.2227H152.218V32.1446H172.091ZM171.627 14.6641L154.635 37.2227H150.387V33.2432L167.281 10.8067H171.627V14.6641ZM169.259 10.8067V15.9092H150.729V10.8067H169.259Z" fill="white"/>
<path d="M0.914062 27.8976C0.914062 23.705 3.665 19.9796 7.68123 18.7764C12.3609 17.3745 17.3403 19.7538 19.1895 24.2754L24.607 37.5222H10.4985C5.20517 37.5222 0.914062 33.191 0.914062 27.8976Z" fill="#6C5FFC"/>
<path d="M29.0032 35.6994L14.332 0.923828H27.016C29.2869 0.923828 30.1821 2.42951 30.5133 3.10902L45.1329 37.3264C40.9221 37.569 33.7963 37.3264 32.1033 37.3264C30.4359 37.3264 29.3655 36.6087 29.0032 35.6994Z" fill="#6C5FFC"/>
<path d="M49.6634 35.6994L34.9922 0.923828H47.6761C49.9471 0.923828 50.8423 2.42951 51.1735 3.10902L65.7931 37.3264C61.5822 37.569 54.4565 37.3264 52.7634 37.3264C51.096 37.3264 50.0256 36.6087 49.6634 35.6994Z" fill="#6C5FFC"/>
</svg>
