<svg width="174" height="38" viewBox="0 0 174 38" fill="none" xmlns="http://www.w3.org/2000/svg">
<path d="M87.249 31.6077V19.425C87.249 18.5299 87.0944 17.7568 86.7852 17.1057C86.4759 16.4547 86.0039 15.9501 85.3691 15.592C84.7344 15.234 83.9287 15.0549 82.9521 15.0549C82.0895 15.0549 81.3327 15.2014 80.6816 15.4944C80.0469 15.7874 79.5586 16.2024 79.2168 16.7395C78.875 17.2603 78.7041 17.8625 78.7041 18.5461H72.2344C72.2344 17.4556 72.4948 16.4221 73.0156 15.4456C73.5365 14.4527 74.277 13.5738 75.2373 12.8088C76.2139 12.0276 77.3776 11.4172 78.7285 10.9778C80.0957 10.5383 81.6257 10.3186 83.3184 10.3186C85.3203 10.3186 87.1025 10.6604 88.665 11.344C90.2438 12.0113 91.4808 13.0204 92.376 14.3713C93.2874 15.7222 93.7432 17.4231 93.7432 19.4739V30.9973C93.7432 32.3157 93.8245 33.4469 93.9873 34.3909C94.1663 35.3186 94.4268 36.1243 94.7686 36.8079V37.2229H88.2012C87.8919 36.5556 87.6559 35.7092 87.4932 34.6838C87.3304 33.6422 87.249 32.6168 87.249 31.6077ZM88.1523 21.134L88.2012 24.967H84.124C83.1149 24.967 82.2279 25.0728 81.4629 25.2844C80.6979 25.4797 80.0713 25.7727 79.583 26.1633C79.0947 26.5377 78.7285 26.9934 78.4844 27.5305C78.2402 28.0514 78.1182 28.6454 78.1182 29.3127C78.1182 29.9638 78.2646 30.5497 78.5576 31.0706C78.8669 31.5914 79.3063 32.0064 79.876 32.3157C80.4619 32.6086 81.1455 32.7551 81.9268 32.7551C83.0661 32.7551 84.0589 32.5273 84.9053 32.0715C85.7516 31.5995 86.4108 31.0299 86.8828 30.3625C87.3548 29.6952 87.6071 29.0605 87.6396 28.4583L89.4951 31.2415C89.2673 31.9088 88.9255 32.6168 88.4697 33.3655C88.014 34.1142 87.4281 34.814 86.7119 35.4651C85.9958 36.1161 85.1331 36.6532 84.124 37.0764C83.1149 37.4996 81.943 37.7112 80.6084 37.7112C78.8994 37.7112 77.3695 37.3694 76.0186 36.6858C74.6676 36.0022 73.6016 35.0663 72.8203 33.8782C72.0391 32.69 71.6484 31.3391 71.6484 29.8254C71.6484 28.4257 71.9089 27.1887 72.4297 26.1145C72.9505 25.0403 73.7236 24.137 74.749 23.4045C75.7744 22.6558 77.0439 22.0943 78.5576 21.72C80.0876 21.3293 81.8372 21.134 83.8066 21.134H88.1523ZM104.877 16.4465V37.2229H98.4316V10.8069H104.486L104.877 16.4465ZM103.852 23.0627H101.947C101.964 21.1422 102.224 19.4006 102.729 17.8381C103.233 16.2756 103.941 14.9329 104.853 13.8098C105.78 12.6868 106.879 11.8241 108.148 11.2219C109.418 10.6197 110.834 10.3186 112.396 10.3186C113.666 10.3186 114.813 10.4976 115.839 10.8557C116.864 11.2138 117.743 11.7834 118.476 12.5647C119.224 13.3459 119.794 14.3713 120.185 15.6409C120.591 16.8941 120.795 18.4403 120.795 20.2795V37.2229H114.301V20.2307C114.301 19.0263 114.122 18.0741 113.764 17.3743C113.422 16.6744 112.917 16.178 112.25 15.885C111.599 15.592 110.793 15.4456 109.833 15.4456C108.84 15.4456 107.969 15.649 107.221 16.0559C106.488 16.4465 105.87 16.9918 105.365 17.6917C104.877 18.3915 104.503 19.1972 104.242 20.1086C103.982 21.0201 103.852 22.0048 103.852 23.0627ZM137.349 37.7112C135.347 37.7112 133.548 37.3857 131.953 36.7346C130.358 36.0836 128.999 35.1803 127.876 34.0247C126.769 32.8528 125.915 31.4937 125.312 29.9475C124.727 28.385 124.434 26.7086 124.434 24.9182V23.9417C124.434 21.9071 124.727 20.0598 125.312 18.3997C125.898 16.7232 126.729 15.2828 127.803 14.0784C128.877 12.8739 130.163 11.9462 131.66 11.2952C133.158 10.6441 134.81 10.3186 136.616 10.3186C138.488 10.3186 140.14 10.636 141.572 11.2708C143.005 11.8892 144.201 12.7681 145.161 13.9075C146.121 15.0468 146.846 16.414 147.334 18.009C147.822 19.5878 148.066 21.3375 148.066 23.2581V25.968H127.363V21.5247H141.719V21.0364C141.686 20.011 141.491 19.0751 141.133 18.2288C140.775 17.3661 140.221 16.6825 139.473 16.178C138.724 15.6571 137.756 15.3967 136.567 15.3967C135.607 15.3967 134.769 15.6083 134.053 16.0315C133.353 16.4384 132.767 17.0243 132.295 17.7893C131.839 18.538 131.497 19.4332 131.27 20.4749C131.042 21.5165 130.928 22.6721 130.928 23.9417V24.9182C130.928 26.025 131.074 27.0504 131.367 27.9944C131.676 28.9384 132.124 29.7603 132.71 30.4602C133.312 31.1438 134.028 31.6809 134.858 32.0715C135.705 32.4459 136.665 32.6331 137.739 32.6331C139.09 32.6331 140.311 32.3726 141.401 31.8518C142.508 31.3147 143.468 30.5253 144.282 29.4836L147.529 32.8528C146.976 33.6666 146.227 34.4478 145.283 35.1965C144.355 35.9452 143.232 36.5556 141.914 37.0276C140.596 37.4833 139.074 37.7112 137.349 37.7112ZM172.091 32.1448V37.2229H152.218V32.1448H172.091ZM171.627 14.6643L154.635 37.2229H150.387V33.2434L167.281 10.8069H171.627V14.6643ZM169.259 10.8069V15.9094H150.729V10.8069H169.259Z" fill="#444050"/>
<path d="M0.914062 27.8975C0.914062 23.7049 3.665 19.9795 7.68123 18.7763V18.7763C12.3609 17.3744 17.3403 19.7537 19.1895 24.2753L24.607 37.5221H10.4985C5.20517 37.5221 0.914062 33.1909 0.914062 27.8975V27.8975Z" fill="#6C5FFC"/>
<path d="M29.0032 35.6994L14.332 0.923828H27.016C29.2869 0.923828 30.1821 2.42951 30.5133 3.10902L45.1329 37.3264C40.9221 37.569 33.7963 37.3264 32.1033 37.3264C30.4359 37.3264 29.3655 36.6087 29.0032 35.6994Z" fill="#6C5FFC"/>
<path d="M49.6634 35.6994L34.9922 0.923828H47.6761C49.9471 0.923828 50.8423 2.42951 51.1735 3.10902L65.7931 37.3264C61.5822 37.569 54.4565 37.3264 52.7634 37.3264C51.096 37.3264 50.0256 36.6087 49.6634 35.6994Z" fill="#6C5FFC"/>
</svg>
